<svg width="24" height="24" viewBox="0 0 24 24" fill="none" xmlns="http://www.w3.org/2000/svg">
  <path d="M9 22C9.55228 22 10 21.5523 10 21C10 20.4477 9.55228 20 9 20C8.44772 20 8 20.4477 8 21C8 21.5523 8.44772 22 9 22Z" fill="white"/>
  <path d="M20 22C20.5523 22 21 21.5523 21 21C21 20.4477 20.5523 20 20 20C19.4477 20 19 20.4477 19 21C19 21.5523 19.4477 22 20 22Z" fill="white"/>
  <path d="M1 1H5L7.68 14.39C7.77144 14.8504 8.02191 15.264 8.38755 15.5583C8.75318 15.8526 9.2107 16.009 9.68 16H19C20.1 16 21 15.1 21 14C21 13.45 20.78 12.95 20.41 12.59L17.59 9.59C17.22 9.22 16.72 9 16.17 9H8.5L7.11 4H1C0.45 4 0 3.55 0 3C0 2.45 0.45 2 1 2Z" fill="white"/>
</svg> 